<mxfile host="app.diagrams.net" modified="2024-01-23T04:18:14.195Z" agent="Mozilla/5.0 (Windows NT 10.0; Win64; x64) AppleWebKit/537.36 (KHTML, like Gecko) Chrome/120.0.0.0 Safari/537.36" etag="qjAXTG4bVmJ_5-y59nFe" version="22.1.21" type="github">
  <diagram name="Page-1" id="n18I0JyYfu6RUbQH0uIh">
    <mxGraphModel dx="1588" dy="908" grid="1" gridSize="10" guides="1" tooltips="1" connect="1" arrows="1" fold="1" page="1" pageScale="1" pageWidth="850" pageHeight="1100" math="0" shadow="0">
      <root>
        <mxCell id="0" />
        <mxCell id="1" parent="0" />
        <mxCell id="8CCOFAVzynP7vzi5a52P-53" style="edgeStyle=orthogonalEdgeStyle;rounded=0;orthogonalLoop=1;jettySize=auto;html=1;exitX=0.5;exitY=1;exitDx=0;exitDy=0;entryX=0.5;entryY=0;entryDx=0;entryDy=0;" edge="1" parent="1" source="8CCOFAVzynP7vzi5a52P-56" target="8CCOFAVzynP7vzi5a52P-74">
          <mxGeometry relative="1" as="geometry" />
        </mxCell>
        <mxCell id="8CCOFAVzynP7vzi5a52P-54" style="edgeStyle=orthogonalEdgeStyle;rounded=0;orthogonalLoop=1;jettySize=auto;html=1;exitX=1;exitY=0.5;exitDx=0;exitDy=0;entryX=0.75;entryY=0;entryDx=0;entryDy=0;" edge="1" parent="1" source="8CCOFAVzynP7vzi5a52P-56" target="8CCOFAVzynP7vzi5a52P-74">
          <mxGeometry relative="1" as="geometry">
            <Array as="points">
              <mxPoint x="610" y="171" />
              <mxPoint x="610" y="250" />
              <mxPoint x="509" y="250" />
            </Array>
          </mxGeometry>
        </mxCell>
        <mxCell id="8CCOFAVzynP7vzi5a52P-55" style="edgeStyle=orthogonalEdgeStyle;rounded=0;orthogonalLoop=1;jettySize=auto;html=1;exitX=0;exitY=0.5;exitDx=0;exitDy=0;entryX=0.25;entryY=0;entryDx=0;entryDy=0;" edge="1" parent="1" source="8CCOFAVzynP7vzi5a52P-56" target="8CCOFAVzynP7vzi5a52P-74">
          <mxGeometry relative="1" as="geometry" />
        </mxCell>
        <mxCell id="8CCOFAVzynP7vzi5a52P-56" value="" style="rounded=1;whiteSpace=wrap;html=1;" vertex="1" parent="1">
          <mxGeometry x="419" y="141.25" width="120" height="60" as="geometry" />
        </mxCell>
        <mxCell id="8CCOFAVzynP7vzi5a52P-57" value="" style="rounded=0;whiteSpace=wrap;html=1;" vertex="1" parent="1">
          <mxGeometry x="930" y="50" width="1000" height="400" as="geometry" />
        </mxCell>
        <mxCell id="8CCOFAVzynP7vzi5a52P-58" value="" style="rounded=0;whiteSpace=wrap;html=1;fillColor=#f5f5f5;fontColor=#333333;strokeColor=#666666;" vertex="1" parent="1">
          <mxGeometry x="1650" y="91.25" width="200" height="300" as="geometry" />
        </mxCell>
        <mxCell id="8CCOFAVzynP7vzi5a52P-59" value="" style="shape=image;imageAspect=0;aspect=fixed;verticalLabelPosition=bottom;verticalAlign=top;image=https://ts1.cn.mm.bing.net/th?id=OIP-C.vIk953QoNniom3IRy0Hv0QHaE8&amp;w=306&amp;h=204&amp;c=8&amp;rs=1&amp;qlt=90&amp;o=6&amp;dpr=1.1&amp;pid=3.1&amp;rm=2;" vertex="1" parent="1">
          <mxGeometry x="439" y="144.57999999999998" width="80" height="53.34" as="geometry" />
        </mxCell>
        <mxCell id="8CCOFAVzynP7vzi5a52P-60" value="" style="endArrow=none;html=1;rounded=0;strokeWidth=2;fillColor=#f5f5f5;strokeColor=#666666;gradientColor=#b3b3b3;" edge="1" parent="1">
          <mxGeometry width="50" height="50" relative="1" as="geometry">
            <mxPoint x="93.75" y="290" as="sourcePoint" />
            <mxPoint x="810" y="290" as="targetPoint" />
          </mxGeometry>
        </mxCell>
        <mxCell id="8CCOFAVzynP7vzi5a52P-61" value="CZ Works MES Platform" style="rounded=1;whiteSpace=wrap;html=1;fillColor=#dae8fc;gradientColor=#7ea6e0;strokeColor=#6c8ebf;" vertex="1" parent="1">
          <mxGeometry x="310" y="511.1" width="120" height="60" as="geometry" />
        </mxCell>
        <mxCell id="8CCOFAVzynP7vzi5a52P-62" value="" style="endArrow=none;html=1;rounded=0;strokeWidth=2;fillColor=#f5f5f5;strokeColor=#666666;gradientColor=#b3b3b3;" edge="1" parent="1">
          <mxGeometry width="50" height="50" relative="1" as="geometry">
            <mxPoint x="93.75" y="450" as="sourcePoint" />
            <mxPoint x="810" y="450" as="targetPoint" />
          </mxGeometry>
        </mxCell>
        <mxCell id="8CCOFAVzynP7vzi5a52P-63" value="Layer 3 ERP" style="rounded=1;whiteSpace=wrap;html=1;rotation=-90;fontStyle=1;fillColor=#f5f5f5;gradientColor=#b3b3b3;strokeColor=#666666;" vertex="1" parent="1">
          <mxGeometry x="-10" y="190" width="150" height="30" as="geometry" />
        </mxCell>
        <mxCell id="8CCOFAVzynP7vzi5a52P-64" value="Layer 2 MES" style="rounded=1;whiteSpace=wrap;html=1;rotation=-90;fontStyle=1;fillColor=#f5f5f5;gradientColor=#b3b3b3;strokeColor=#666666;" vertex="1" parent="1">
          <mxGeometry x="-10" y="350" width="150" height="30" as="geometry" />
        </mxCell>
        <mxCell id="8CCOFAVzynP7vzi5a52P-65" value="Layer 1 Edge" style="rounded=1;whiteSpace=wrap;html=1;rotation=-90;fontStyle=1;fillColor=#f5f5f5;gradientColor=#b3b3b3;strokeColor=#666666;" vertex="1" parent="1">
          <mxGeometry x="-10" y="510" width="150" height="30" as="geometry" />
        </mxCell>
        <mxCell id="8CCOFAVzynP7vzi5a52P-66" value="Layer 0 Device" style="rounded=1;whiteSpace=wrap;html=1;rotation=-90;fontStyle=1;fillColor=#f5f5f5;gradientColor=#b3b3b3;strokeColor=#666666;" vertex="1" parent="1">
          <mxGeometry x="-10" y="671.25" width="150" height="30" as="geometry" />
        </mxCell>
        <mxCell id="8CCOFAVzynP7vzi5a52P-67" value="" style="endArrow=none;html=1;rounded=0;strokeWidth=2;fillColor=#f5f5f5;strokeColor=#666666;gradientColor=#b3b3b3;" edge="1" parent="1">
          <mxGeometry width="50" height="50" relative="1" as="geometry">
            <mxPoint x="93.75" y="610" as="sourcePoint" />
            <mxPoint x="810" y="610" as="targetPoint" />
          </mxGeometry>
        </mxCell>
        <mxCell id="8CCOFAVzynP7vzi5a52P-68" value="" style="endArrow=none;html=1;rounded=0;strokeWidth=2;fillColor=#f5f5f5;strokeColor=#666666;gradientColor=#b3b3b3;" edge="1" parent="1">
          <mxGeometry width="50" height="50" relative="1" as="geometry">
            <mxPoint x="93.75" y="770" as="sourcePoint" />
            <mxPoint x="810" y="770" as="targetPoint" />
          </mxGeometry>
        </mxCell>
        <mxCell id="8CCOFAVzynP7vzi5a52P-69" value="&lt;b&gt;&lt;font style=&quot;font-size: 18px;&quot;&gt;Solution Architecture&lt;/font&gt;&lt;/b&gt;" style="text;html=1;strokeColor=none;fillColor=none;align=center;verticalAlign=middle;whiteSpace=wrap;rounded=0;" vertex="1" parent="1">
          <mxGeometry x="77.25" y="40" width="200" height="50" as="geometry" />
        </mxCell>
        <mxCell id="8CCOFAVzynP7vzi5a52P-70" value="" style="endArrow=none;html=1;rounded=0;strokeWidth=2;fillColor=#f5f5f5;strokeColor=#666666;gradientColor=#b3b3b3;" edge="1" parent="1">
          <mxGeometry width="50" height="50" relative="1" as="geometry">
            <mxPoint x="93.75" y="130" as="sourcePoint" />
            <mxPoint x="810" y="130" as="targetPoint" />
          </mxGeometry>
        </mxCell>
        <mxCell id="8CCOFAVzynP7vzi5a52P-71" value="" style="image;aspect=fixed;html=1;points=[];align=center;fontSize=12;image=img/lib/azure2/identity/Azure_Active_Directory.svg;" vertex="1" parent="1">
          <mxGeometry x="114" y="221.29" width="30" height="27.43" as="geometry" />
        </mxCell>
        <mxCell id="8CCOFAVzynP7vzi5a52P-72" value="Azure Active Directory" style="text;html=1;strokeColor=none;fillColor=none;align=center;verticalAlign=middle;whiteSpace=wrap;rounded=0;" vertex="1" parent="1">
          <mxGeometry x="146.25" y="222" width="131" height="30" as="geometry" />
        </mxCell>
        <mxCell id="8CCOFAVzynP7vzi5a52P-73" value="" style="endArrow=classic;startArrow=classic;html=1;rounded=0;" edge="1" parent="1">
          <mxGeometry width="50" height="50" relative="1" as="geometry">
            <mxPoint x="128" y="284" as="sourcePoint" />
            <mxPoint x="128" y="250" as="targetPoint" />
          </mxGeometry>
        </mxCell>
        <mxCell id="8CCOFAVzynP7vzi5a52P-74" value="Oracle database link" style="rounded=1;whiteSpace=wrap;html=1;fillColor=#ffcd28;gradientColor=#ffa500;strokeColor=#d79b00;" vertex="1" parent="1">
          <mxGeometry x="419" y="271.25" width="120" height="40" as="geometry" />
        </mxCell>
        <mxCell id="8CCOFAVzynP7vzi5a52P-75" value="" style="html=1;verticalLabelPosition=bottom;align=center;labelBackgroundColor=#ffffff;verticalAlign=top;strokeWidth=2;strokeColor=#0080F0;shadow=0;dashed=0;shape=mxgraph.ios7.icons.data;" vertex="1" parent="1">
          <mxGeometry x="467" y="354" width="24" height="29.099999999999998" as="geometry" />
        </mxCell>
        <mxCell id="8CCOFAVzynP7vzi5a52P-76" value="MES database" style="text;html=1;strokeColor=none;fillColor=none;align=center;verticalAlign=middle;whiteSpace=wrap;rounded=0;" vertex="1" parent="1">
          <mxGeometry x="449" y="391.25" width="60" height="30" as="geometry" />
        </mxCell>
        <mxCell id="8CCOFAVzynP7vzi5a52P-77" style="edgeStyle=orthogonalEdgeStyle;rounded=0;orthogonalLoop=1;jettySize=auto;html=1;exitX=1;exitY=0.25;exitDx=0;exitDy=0;entryX=0;entryY=0.5;entryDx=0;entryDy=0;" edge="1" parent="1" source="8CCOFAVzynP7vzi5a52P-78" target="8CCOFAVzynP7vzi5a52P-91">
          <mxGeometry relative="1" as="geometry" />
        </mxCell>
        <mxCell id="8CCOFAVzynP7vzi5a52P-78" value="Client Application" style="rounded=1;whiteSpace=wrap;html=1;fillColor=#dae8fc;gradientColor=#7ea6e0;strokeColor=#6c8ebf;" vertex="1" parent="1">
          <mxGeometry x="970" y="192.25" width="120" height="78" as="geometry" />
        </mxCell>
        <mxCell id="8CCOFAVzynP7vzi5a52P-79" value="" style="rounded=0;whiteSpace=wrap;html=1;fillColor=#f5f5f5;fontColor=#333333;strokeColor=#666666;" vertex="1" parent="1">
          <mxGeometry x="1150" y="91.25" width="340" height="340" as="geometry" />
        </mxCell>
        <mxCell id="8CCOFAVzynP7vzi5a52P-80" style="edgeStyle=orthogonalEdgeStyle;rounded=0;orthogonalLoop=1;jettySize=auto;html=1;exitX=1;exitY=0;exitDx=0;exitDy=37.5;exitPerimeter=0;entryX=0;entryY=0.5;entryDx=0;entryDy=0;" edge="1" parent="1" source="8CCOFAVzynP7vzi5a52P-83" target="8CCOFAVzynP7vzi5a52P-88">
          <mxGeometry relative="1" as="geometry" />
        </mxCell>
        <mxCell id="8CCOFAVzynP7vzi5a52P-81" style="edgeStyle=orthogonalEdgeStyle;rounded=0;orthogonalLoop=1;jettySize=auto;html=1;exitX=0;exitY=0;exitDx=0;exitDy=82.5;exitPerimeter=0;entryX=1;entryY=0.5;entryDx=0;entryDy=0;" edge="1" parent="1" source="8CCOFAVzynP7vzi5a52P-83" target="8CCOFAVzynP7vzi5a52P-93">
          <mxGeometry relative="1" as="geometry" />
        </mxCell>
        <mxCell id="8CCOFAVzynP7vzi5a52P-82" style="edgeStyle=orthogonalEdgeStyle;rounded=0;orthogonalLoop=1;jettySize=auto;html=1;exitX=0.5;exitY=1;exitDx=0;exitDy=0;exitPerimeter=0;entryX=0.5;entryY=0;entryDx=0;entryDy=0;" edge="1" parent="1" source="8CCOFAVzynP7vzi5a52P-83" target="8CCOFAVzynP7vzi5a52P-96">
          <mxGeometry relative="1" as="geometry" />
        </mxCell>
        <mxCell id="8CCOFAVzynP7vzi5a52P-83" value="" style="shape=cylinder3;whiteSpace=wrap;html=1;boundedLbl=1;backgroundOutline=1;size=15;fillColor=#f5f5f5;strokeColor=#666666;gradientColor=#b3b3b3;" vertex="1" parent="1">
          <mxGeometry x="1293" y="173.25" width="150" height="120" as="geometry" />
        </mxCell>
        <mxCell id="8CCOFAVzynP7vzi5a52P-84" style="edgeStyle=orthogonalEdgeStyle;rounded=0;orthogonalLoop=1;jettySize=auto;html=1;exitX=0;exitY=0;exitDx=0;exitDy=82.5;exitPerimeter=0;" edge="1" parent="1" source="8CCOFAVzynP7vzi5a52P-85" target="8CCOFAVzynP7vzi5a52P-89">
          <mxGeometry relative="1" as="geometry" />
        </mxCell>
        <mxCell id="8CCOFAVzynP7vzi5a52P-85" value="" style="shape=cylinder3;whiteSpace=wrap;html=1;boundedLbl=1;backgroundOutline=1;size=15;fillColor=#dae8fc;gradientColor=#7ea6e0;strokeColor=#6c8ebf;" vertex="1" parent="1">
          <mxGeometry x="1675" y="173.25" width="150" height="120" as="geometry" />
        </mxCell>
        <mxCell id="8CCOFAVzynP7vzi5a52P-86" value="&lt;b&gt;Remote Database Server (MES)&lt;/b&gt;" style="text;html=1;strokeColor=none;fillColor=none;align=center;verticalAlign=middle;whiteSpace=wrap;rounded=0;" vertex="1" parent="1">
          <mxGeometry x="1655" y="102.25" width="190" height="30" as="geometry" />
        </mxCell>
        <mxCell id="8CCOFAVzynP7vzi5a52P-87" value="&lt;b&gt;Local Database Server (Oracle)&lt;/b&gt;" style="text;html=1;strokeColor=none;fillColor=none;align=center;verticalAlign=middle;whiteSpace=wrap;rounded=0;" vertex="1" parent="1">
          <mxGeometry x="1225" y="111.25" width="190" height="30" as="geometry" />
        </mxCell>
        <mxCell id="8CCOFAVzynP7vzi5a52P-88" value="Connect" style="rounded=1;whiteSpace=wrap;html=1;" vertex="1" parent="1">
          <mxGeometry x="1530" y="201.25" width="80" height="20" as="geometry" />
        </mxCell>
        <mxCell id="8CCOFAVzynP7vzi5a52P-89" value="Data" style="rounded=1;whiteSpace=wrap;html=1;" vertex="1" parent="1">
          <mxGeometry x="1530" y="246.5" width="80" height="20" as="geometry" />
        </mxCell>
        <mxCell id="8CCOFAVzynP7vzi5a52P-90" style="edgeStyle=orthogonalEdgeStyle;rounded=0;orthogonalLoop=1;jettySize=auto;html=1;exitX=1;exitY=0.5;exitDx=0;exitDy=0;entryX=0;entryY=0;entryDx=0;entryDy=37.5;entryPerimeter=0;" edge="1" parent="1" source="8CCOFAVzynP7vzi5a52P-88" target="8CCOFAVzynP7vzi5a52P-85">
          <mxGeometry relative="1" as="geometry" />
        </mxCell>
        <mxCell id="8CCOFAVzynP7vzi5a52P-91" value="Listener" style="rounded=1;whiteSpace=wrap;html=1;fillColor=#dae8fc;gradientColor=#7ea6e0;strokeColor=#6c8ebf;" vertex="1" parent="1">
          <mxGeometry x="1170" y="201.25" width="80" height="20" as="geometry" />
        </mxCell>
        <mxCell id="8CCOFAVzynP7vzi5a52P-92" style="edgeStyle=orthogonalEdgeStyle;rounded=0;orthogonalLoop=1;jettySize=auto;html=1;exitX=0;exitY=0.25;exitDx=0;exitDy=0;entryX=1;entryY=0.75;entryDx=0;entryDy=0;" edge="1" parent="1" source="8CCOFAVzynP7vzi5a52P-93" target="8CCOFAVzynP7vzi5a52P-78">
          <mxGeometry relative="1" as="geometry" />
        </mxCell>
        <mxCell id="8CCOFAVzynP7vzi5a52P-93" value="Data" style="rounded=1;whiteSpace=wrap;html=1;" vertex="1" parent="1">
          <mxGeometry x="1170" y="246.5" width="80" height="20" as="geometry" />
        </mxCell>
        <mxCell id="8CCOFAVzynP7vzi5a52P-94" style="edgeStyle=orthogonalEdgeStyle;rounded=0;orthogonalLoop=1;jettySize=auto;html=1;exitX=0;exitY=0.5;exitDx=0;exitDy=0;entryX=1;entryY=0;entryDx=0;entryDy=82.5;entryPerimeter=0;" edge="1" parent="1" source="8CCOFAVzynP7vzi5a52P-89" target="8CCOFAVzynP7vzi5a52P-83">
          <mxGeometry relative="1" as="geometry" />
        </mxCell>
        <mxCell id="8CCOFAVzynP7vzi5a52P-95" style="edgeStyle=orthogonalEdgeStyle;rounded=0;orthogonalLoop=1;jettySize=auto;html=1;exitX=1;exitY=0.5;exitDx=0;exitDy=0;entryX=0;entryY=0;entryDx=0;entryDy=37.5;entryPerimeter=0;" edge="1" parent="1" source="8CCOFAVzynP7vzi5a52P-91" target="8CCOFAVzynP7vzi5a52P-83">
          <mxGeometry relative="1" as="geometry" />
        </mxCell>
        <mxCell id="8CCOFAVzynP7vzi5a52P-96" value="" style="shape=document;whiteSpace=wrap;html=1;boundedLbl=1;fillColor=#fff2cc;strokeColor=#d6b656;gradientColor=#ffd966;" vertex="1" parent="1">
          <mxGeometry x="1338" y="371.25" width="60" height="40" as="geometry" />
        </mxCell>
        <mxCell id="8CCOFAVzynP7vzi5a52P-97" value="Read" style="rounded=1;whiteSpace=wrap;html=1;" vertex="1" parent="1">
          <mxGeometry x="1328" y="321.25" width="80" height="20" as="geometry" />
        </mxCell>
        <mxCell id="8CCOFAVzynP7vzi5a52P-98" value="&lt;b&gt;Oracle database link&lt;/b&gt;" style="text;html=1;strokeColor=none;fillColor=none;align=center;verticalAlign=middle;whiteSpace=wrap;rounded=0;" vertex="1" parent="1">
          <mxGeometry x="940" y="62" width="130" height="30" as="geometry" />
        </mxCell>
        <mxCell id="8CCOFAVzynP7vzi5a52P-99" value="&lt;b&gt;Interface 001&lt;br&gt;Master Data&lt;/b&gt;" style="text;html=1;strokeColor=none;fillColor=none;align=center;verticalAlign=middle;whiteSpace=wrap;rounded=0;" vertex="1" parent="1">
          <mxGeometry x="481" y="220" width="100" height="30" as="geometry" />
        </mxCell>
        <mxCell id="8CCOFAVzynP7vzi5a52P-100" value="&lt;b&gt;Interface 001 Master Data&lt;/b&gt;" style="text;html=1;strokeColor=none;fillColor=none;align=center;verticalAlign=middle;whiteSpace=wrap;rounded=0;" vertex="1" parent="1">
          <mxGeometry x="620" y="341.25" width="100" height="30" as="geometry" />
        </mxCell>
        <mxCell id="8CCOFAVzynP7vzi5a52P-101" value="&lt;b&gt;Interface 002&lt;br&gt;Sales Order Information&lt;br&gt;&lt;/b&gt;" style="text;html=1;strokeColor=none;fillColor=none;align=center;verticalAlign=middle;whiteSpace=wrap;rounded=0;" vertex="1" parent="1">
          <mxGeometry x="620" y="190" width="160" height="30" as="geometry" />
        </mxCell>
        <mxCell id="8CCOFAVzynP7vzi5a52P-102" value="&lt;b&gt;Interface 002&lt;br&gt;Sales Order Information&lt;br&gt;&lt;/b&gt;" style="text;html=1;strokeColor=none;fillColor=none;align=center;verticalAlign=middle;whiteSpace=wrap;rounded=0;" vertex="1" parent="1">
          <mxGeometry x="323" y="331.25" width="80" height="30" as="geometry" />
        </mxCell>
        <mxCell id="8CCOFAVzynP7vzi5a52P-103" value="&lt;b&gt;Interface 003&lt;br&gt;Production Order Information&lt;br&gt;&lt;/b&gt;" style="text;html=1;strokeColor=none;fillColor=none;align=center;verticalAlign=middle;whiteSpace=wrap;rounded=0;" vertex="1" parent="1">
          <mxGeometry x="190" y="186.5" width="200" height="30" as="geometry" />
        </mxCell>
        <mxCell id="8CCOFAVzynP7vzi5a52P-104" value="&lt;b&gt;Interface 003&lt;br&gt;Production Order Information&lt;br&gt;&lt;/b&gt;" style="text;html=1;strokeColor=none;fillColor=none;align=center;verticalAlign=middle;whiteSpace=wrap;rounded=0;" vertex="1" parent="1">
          <mxGeometry x="174.75" y="317.5" width="110" height="30" as="geometry" />
        </mxCell>
      </root>
    </mxGraphModel>
  </diagram>
</mxfile>
